<?xml version="1.0" encoding="utf-8"?>
<!-- Generator: Adobe Illustrator 21.1.0, SVG Export Plug-In . SVG Version: 6.00 Build 0)  -->
<svg version="1.1" id="Capa_1" xmlns="http://www.w3.org/2000/svg" xmlns:xlink="http://www.w3.org/1999/xlink" x="0px" y="0px"
	 viewBox="0 0 150.2 150" style="enable-background:new 0 0 150.2 150;" xml:space="preserve">
<style type="text/css">
	.st0{fill:#FFFFFF;}
	.st1{fill:#E5882F;}
	.st2{fill:none;stroke:#FFFFFF;stroke-width:4.8352;stroke-linecap:round;stroke-linejoin:round;stroke-miterlimit:10;}
</style>
<g>
	<g>
		<circle class="st0" cx="71.8" cy="71.8" r="71.8"/>
		<circle class="st1" cx="78.4" cy="78.2" r="71.8"/>
		<g>
			<path class="st0" d="M66.9,66.6l-2-6h9.4c1,0,1.8-0.8,1.8-1.8s-0.8-1.8-1.8-1.8H63.7l-1.8-5.6c-0.2-0.8-1-1.3-1.7-1.3l-6.8,0
				c-1,0-1.8,0.8-1.8,1.8c0,1,0.8,1.8,1.8,1.8h5.5c3.2,9.9,6.5,19.9,9.7,29.8c-1.3,0.3-2.4,0.9-3.3,1.8c-1.2,1.2-1.9,2.8-1.9,4.7
				c0,1.8,0.7,3.5,1.9,4.7c1.2,1.2,2.8,1.9,4.7,1.9c1.8,0,3.5-0.7,4.7-1.9c1.2-1.2,1.9-2.8,1.9-4.7c0-1.1-0.3-2.1-0.7-3h12.6
				c-0.5,0.9-0.7,1.9-0.7,3c0,1.8,0.7,3.5,1.9,4.7c1.2,1.2,2.8,1.9,4.7,1.9c1.8,0,3.5-0.7,4.7-1.9c1.2-1.2,1.9-2.8,1.9-4.7
				c0-1.8-0.7-3.5-1.9-4.7c-1.2-1.2-2.9-1.9-4.7-1.9H72.4l-1-3.2l23,0c0.8,0,1.5-0.5,1.7-1.3l6.4-19.6c0.1-0.2,0.1-0.4,0.1-0.7
				c0-1-0.8-1.8-1.8-1.8H88.8c-1,0-1.8,0.8-1.8,1.8s0.8,1.8,1.8,1.8h9.4l-2,6H66.9z M95.1,70.2H68l2.1,6.4H93L95.1,70.2z M81.6,56.9
				c-1,0-1.8,0.8-1.8,1.8s0.8,1.8,1.8,1.8c1,0,1.8-0.8,1.8-1.8S82.6,56.9,81.6,56.9z M94.4,87c0.8,0,1.5,0.4,2,0.9
				c0.5,0.5,0.9,1.3,0.9,2.1c0,0.8-0.3,1.6-0.9,2.1c-0.5,0.5-1.3,0.9-2.1,0.9s-1.6-0.3-2.1-0.9c-0.5-0.5-0.9-1.3-0.9-2.1
				c0-0.8,0.3-1.6,0.9-2.1c0.5-0.5,1.2-0.8,1.9-0.9C94.2,87,94.3,87,94.4,87z M72,87.9c0.5,0.5,0.9,1.3,0.9,2.1
				c0,0.8-0.3,1.6-0.9,2.1c-0.5,0.5-1.3,0.9-2.1,0.9c-0.8,0-1.6-0.3-2.1-0.9C67.3,91.6,67,90.8,67,90s0.3-1.6,0.9-2.1
				c0.5-0.5,1.3-0.9,2.1-0.9S71.5,87.4,72,87.9z"/>
			<g>
				<g>
					<path class="st0" d="M22.5,91h18.9v32.6h0h-0.3c-0.7,0-1.4,0.6-1.4,1.4s0.6,1.4,1.4,1.4h1.7c0.7,0,1.4-0.6,1.4-1.4v-1.4h4.1
						c0.7,0,1.4-0.6,1.4-1.4v-1l0-2.8V96.2c9.5-1.4,7.4-1.6,17.9,2.1c3.2,1.1,6.8,2.4,11.2,3.8c0.7,0.3,2.5,1.3,1.8,3.6
						c-0.4,1.4-1.8,2.7-3.8,2.4c-2.7-0.5-18.4-2.6-19.1-2.7c-0.7-0.1-1.4,0.4-1.5,1.2c-0.1,0.7,0.4,1.4,1.2,1.5
						c0.2,0,16.3,2.2,18.9,2.7c0.4,0.1,0.8,0.1,1.2,0.1c2.9,0,5-2.1,5.7-4.4c0.7-2.4,0-5.5-3.4-6.9c0,0,0,0,0,0c0,0,0,0,0,0
						c0,0,0,0-0.1,0s0,0-0.1,0c-4.4-1.4-8-2.7-11.2-3.8c-10.5-3.6-8.9-3.6-18.8-2.2v-1.1c0-0.7-0.6-1.4-1.4-1.4h-4.1v-1.4
						c0-0.7-0.6-1.4-1.4-1.4H21.1c-0.7,0-1.4,0.6-1.4,1.4c0,0.7,0.6,1.4,1.3,1.4C21.8,91,22.5,91,22.5,91z M46.8,119.4
						C46.8,119.4,46.8,119.4,46.8,119.4v1.3h-2.7v0V93.7h2.7L46.8,119.4L46.8,119.4z"/>
				</g>
				<path class="st2" d="M48.7,119.2c0,0,22.1,3.5,26.6,4.2c6.6,1,13.5-6.5,23.2-14.2s11.7-9.7,14.7-12.5s0.4-9.4-5.6-5.7
					c-6,3.7-21.5,13.5-21.5,13.5"/>
			</g>
			<path class="st0" d="M42.2,64c-0.3,0.3-0.8,0.5-1.2,0.5c-0.6,0-1.1-0.3-1.5-0.7l-5.6-6.7c-0.6-0.8-0.5-1.9,0.2-2.5
				c0.8-0.6,1.9-0.5,2.5,0.2l2.8,3.3C40.5,48.7,44.7,40.3,51,34c7.3-7.3,17.5-11.9,28.7-11.9c9.6,0,18.5,3.3,25.4,8.9
				c7.1,5.7,12.2,13.7,14.3,22.9c0.2,1-0.4,1.9-1.4,2.2c-1,0.2-1.9-0.4-2.2-1.4c-1.8-8.4-6.5-15.7-13-20.9
				c-6.3-5.1-14.4-8.1-23.1-8.1c-10.2,0-19.5,4.1-26.2,10.8c-5.8,5.8-9.7,13.5-10.6,22.1l3.6-3c0.8-0.6,1.9-0.5,2.5,0.2
				c0.6,0.8,0.5,1.9-0.2,2.5L42.2,64z"/>
		</g>
	</g>
</g>
</svg>
