<?xml version="1.0" encoding="utf-8"?>
<!-- Generator: Adobe Illustrator 21.1.0, SVG Export Plug-In . SVG Version: 6.00 Build 0)  -->
<svg version="1.1" id="Capa_1" xmlns="http://www.w3.org/2000/svg" xmlns:xlink="http://www.w3.org/1999/xlink" x="0px" y="0px"
	 viewBox="0 0 345.6 100.1" style="enable-background:new 0 0 345.6 100.1;" xml:space="preserve">
<style type="text/css">
	.st0{fill:url(#SVGID_1_);}
	.st1{fill:#FFFFFF;}
	.st2{font-family:'Roboto-Black';}
	.st3{font-size:42.5px;}
</style>
<g>
	<linearGradient id="SVGID_1_" gradientUnits="userSpaceOnUse" x1="0" y1="50.0673" x2="345.6491" y2="50.0673">
		<stop  offset="4.252398e-02" style="stop-color:#D37F34"/>
		<stop  offset="1" style="stop-color:#E7D852"/>
	</linearGradient>
	<path class="st0" d="M295.6,0L50.1,0C22.5,0,0,22.5,0,50.1v0c0,27.5,22.5,50.1,50.1,50.1h245.5c27.5,0,50.1-22.5,50.1-50.1v0
		C345.6,22.5,323.1,0,295.6,0z"/>
	<text transform="matrix(1 0 0 1 159.2887 61.7899)" class="st1 st2 st3">Log Out</text>
	<g id="q3vzN7.tif_9_">
		<g>
			<path class="st1" d="M92.1,65.1c-8.2,0-15.5-0.2-22.8,0.1c-4.6,0.1-6.8-1.4-6.6-6.3c0.3-5.6,0-11.3,0.1-17c0-6,0.6-6.6,6.5-6.7
				c7,0,14,0,21-0.1c0.3,0,1.8-0.4,1.8-0.4l0.1-13.5c0-8.2,6.5-4.9,7.8-3.5c9.5,9.3,18.9,18.8,28.3,28.2c3,3,3.1,5.4,0,8.4
				c-9.6,9.4-19,19.1-28.7,28.5c-1.2,1.2-4.1,2.5-5,1.9c-1.4-0.9-2.4-3.3-2.5-5.2C91.8,74.8,92.1,70.2,92.1,65.1z"/>
			<path class="st1" d="M40.7,49.8c0-6.7-0.1-13.3,0-20C41,19.7,47.8,13.2,58,13.1c5.3,0,10.7,0.1,16-0.1c2.9-0.1,3.8,1.5,3.8,4
				c0,2.5-0.8,4.1-3.8,4c-5.3-0.2-10.7-0.1-16,0c-6,0.1-9.7,3.6-9.8,9.6c-0.1,13-0.1,26,0,39c0.1,5.9,3.9,9.6,9.8,9.6
				c5.2,0.1,10.3,0.1,15.5,0c2.9-0.1,4.4,1,4.3,4c-0.1,2.9-1.3,4.1-4.3,4C68,86.9,62.5,87.2,57,87c-9-0.2-15.8-6.8-16.1-15.8
				C40.6,64.1,40.8,56.9,40.7,49.8C40.8,49.8,40.7,49.8,40.7,49.8z"/>
		</g>
	</g>
</g>
</svg>
